<svg width="244" height="74" viewBox="0 0 244 74" fill="none" xmlns="http://www.w3.org/2000/svg">
<path fill-rule="evenodd" clip-rule="evenodd" d="M24.7839 30.4016L17.6549 24.3514L14.4076 21.138C13.7125 20.4503 13.1631 19.6297 12.7919 18.725L12.6033 18.2653C11.7995 16.3063 12.0245 14.0757 13.2033 12.3167C14.0321 11.08 15.2688 10.1736 16.6976 9.75575L18.5426 9.21615C19.6053 8.90537 20.7068 8.7476 21.8139 8.7476H71.0724L111.588 3.54633L132.865 2.1278L164.553 0L184.471 0.945687L190.809 1.65495H211.633H214.073C214.856 1.65495 215.634 1.77691 216.379 2.01644L217.232 2.29071C217.865 2.49412 218.437 2.85211 218.897 3.33231L218.931 3.3677C219.622 4.08925 220.007 5.0496 220.007 6.04851C220.007 6.27135 219.988 6.49377 219.95 6.7133L219.555 8.98403L219.328 10.8754C219.328 12.5019 220.527 13.8794 222.138 14.1038L222.724 14.1853H223.133C224.776 14.1853 226.376 14.7246 227.685 15.7187C227.998 15.9568 228.293 16.2195 228.565 16.5039L228.794 16.7434C229.982 17.9845 230.646 19.6364 230.646 21.3546C230.646 21.7754 230.606 22.1953 230.527 22.6086L230.229 24.1628C230.205 24.2883 230.193 24.4157 230.193 24.5435C230.193 25.2973 229.774 25.9888 229.106 26.3377L228.454 26.6784C228.406 26.7031 228.363 26.7353 228.327 26.7738C228.058 27.0542 228.207 27.5207 228.589 27.5931L229.421 27.7511C229.869 27.8362 230.193 28.2278 230.193 28.6837V29.9047C230.193 31.3541 231.457 32.4795 232.896 32.3125L233.903 32.1956C234.145 32.1675 234.383 32.1129 234.613 32.0328L234.8 31.9679C235.78 31.6267 236.84 31.5913 237.84 31.8663L238.598 32.0746C239.911 32.4356 241.102 33.1457 242.044 34.1294L242.316 34.4131C242.83 34.9502 243.232 35.5845 243.498 36.2789C243.827 37.1403 243.939 38.0699 243.822 38.9848L243.713 39.8371C243.603 40.6994 243.369 41.5412 243.018 42.3364L242.684 43.092C242.356 43.8342 241.925 44.5265 241.404 45.1485C239.882 46.965 237.681 48.0769 235.316 48.2239L220.808 49.126C220.358 49.1539 220.007 49.5269 220.007 49.9775C220.007 50.4487 220.389 50.8307 220.861 50.8307H230.615C231.996 50.8307 232.515 52.6379 231.345 53.3711C230.553 53.8674 230.477 54.9923 231.194 55.5916L232.862 56.9857C233.044 57.1374 233.206 57.3103 233.347 57.5008L235.082 59.8568C235.292 60.1427 235.463 60.4556 235.59 60.7871C235.763 61.2383 235.852 61.7174 235.852 62.2006V62.7335C235.852 63.4521 235.646 64.1557 235.26 64.7614C235.052 65.0868 234.795 65.3784 234.499 65.6259L233.691 66.3015C233.021 66.8609 232.285 67.3354 231.5 67.7142L231.201 67.8583C230.231 68.3259 229.207 68.6736 228.153 68.8938L227.477 69.0351L225.213 69.7444L224.186 69.992C222.912 70.299 221.612 70.4802 220.302 70.5328L216.386 70.6901L202.579 71.1629H181.076H167.269L150.972 72.8179L129.469 74L107.967 73.5272L98.6865 72.8179H85.7848L74.6939 74H58.1707H49.1169L44.1373 73.7636L41.4212 73.2907L38.4295 72.7473C36.958 72.48 35.461 72.3786 33.9669 72.445L25.577 72.8179H18.3209C16.0842 72.8179 13.8656 72.4175 11.7699 71.6358L10.6073 71.1153C10.3272 70.9899 10.0634 70.8308 9.82173 70.6415L9.78498 70.6127C8.8948 69.9154 8.37477 68.8474 8.37477 67.7166C8.37477 67.337 8.43351 66.9597 8.54891 66.5981L8.82746 65.7252L9.67823 63.5036C10.0136 62.6279 10.1855 61.6981 10.1855 60.7604C10.1855 59.9769 9.55043 59.3419 8.767 59.3419H7.26869C7.10101 59.3419 6.93364 59.3274 6.76844 59.2986L5.55162 59.0868C4.72623 58.9431 3.93875 58.6328 3.23721 58.1748C2.74151 57.8512 2.29497 57.458 1.91132 57.0071L1.49422 56.517C0.956129 55.8847 0.54905 55.1518 0.296631 54.3608C0.100061 53.7449 0 53.1022 0 52.4556V51.7291C0 51.1337 0.0921393 50.5419 0.273147 49.9748C0.540212 49.1379 0.994812 48.373 1.6023 47.7385L2.26345 47.0479L4.30056 45.1565L7.92208 42.5559L11.3173 40.4281L13.1468 39.3665C13.2827 39.2876 13.4372 39.246 13.5944 39.246C14.0868 39.246 14.4861 38.8468 14.4861 38.3543V33.7106C14.4861 33.462 14.5246 33.2149 14.6001 32.9781C14.815 32.3049 15.3145 31.7599 15.9666 31.4875L16.0705 31.4441C16.8176 31.132 17.6191 30.9712 18.4288 30.9712H20.5974H23.7662H24.5747C24.7532 30.9712 24.898 30.8265 24.898 30.648C24.898 30.5531 24.8562 30.463 24.7839 30.4016ZM60.692 55.746C62.44 57.6167 65.0927 58.552 68.65 58.552C70.582 58.552 72.284 58.138 73.756 57.31C75.228 56.482 76.3627 55.3627 77.16 53.952C77.988 52.5107 78.402 50.916 78.402 49.168C78.402 46.776 77.896 44.706 76.884 42.958C75.872 41.21 74.446 39.554 72.606 37.99L69.524 35.276C68.2667 34.172 67.3467 33.1907 66.764 32.332C66.212 31.4733 65.936 30.4153 65.936 29.158C65.936 28.422 66.12 27.7627 66.488 27.18C66.8867 26.5667 67.4387 26.26 68.144 26.26C69.1253 26.26 69.754 26.6893 70.03 27.548C70.3367 28.376 70.5207 29.756 70.582 31.688L77.666 30.814C77.574 27.87 76.884 25.3707 75.596 23.316C74.3387 21.2613 71.9467 20.234 68.42 20.234C65.1693 20.234 62.6087 21.0773 60.738 22.764C58.898 24.4507 57.978 26.858 57.978 29.986C57.978 32.0713 58.4073 33.8807 59.266 35.414C60.1553 36.9167 61.3973 38.3427 62.992 39.692L66.212 42.498C67.6227 43.694 68.65 44.8133 69.294 45.856C69.9687 46.8987 70.306 48.1407 70.306 49.582C70.306 51.3913 69.616 52.296 68.236 52.296C67.1627 52.296 66.35 51.79 65.798 50.778C65.2767 49.7353 65.0007 48.0333 64.97 45.672L57.932 46.73C58.0547 50.8393 58.9747 53.8447 60.692 55.746ZM95.2229 20.74H86.9889V58H95.2229V43.004L96.0969 41.532L101.479 58H109.851L102.629 37.576L109.529 20.74H101.479L95.2229 35.966V20.74ZM132.317 20.74H122.933L115.895 58H123.669L124.957 50.134H130.431L131.673 58H139.263L132.317 20.74ZM127.671 30.676L129.649 45.212H125.693L127.671 30.676ZM143.394 26.858H149.006V58H157.286V26.858H162.852V20.74H143.394V26.858ZM187.476 20.74H170.732V58H187.568V52.434H178.966V41.302H185.452V35.598H178.966V26.352H187.476V20.74Z" fill="white"/>
</svg>
