<svg width="180" height="110" viewBox="0 0 180 110" fill="none" xmlns="http://www.w3.org/2000/svg">
<path opacity="0.8" fill-rule="evenodd" clip-rule="evenodd" d="M13.8233 75.5095L6.83608 73.0677L3.52318 71.6175C2.81412 71.3071 2.1748 70.8572 1.64331 70.2945L1.37319 70.0085C0.222219 68.79 -0.246026 67.0781 0.124493 65.4434C0.384987 64.2941 1.04079 63.2728 1.97746 62.5577L3.18695 61.6343C3.88355 61.1025 4.65238 60.6726 5.47026 60.3577L41.8591 46.3472L70.31 30.9809L85.6241 23.8814L108.428 13.2964L123.411 8.32965L128.295 7.05099L143.678 1.12811L145.481 0.434069C146.059 0.211408 146.668 0.0802052 147.287 0.0451705L147.996 0.00505491C148.521 -0.0246977 149.046 0.0770144 149.522 0.30099L149.557 0.317498C150.272 0.654045 150.83 1.25381 151.115 1.99174C151.178 2.15636 151.227 2.32613 151.261 2.49917L151.615 4.28906L151.986 5.75066C152.448 6.95219 153.726 7.62881 154.98 7.33635L155.435 7.2301L155.738 7.11365C156.952 6.64623 158.287 6.58964 159.536 6.95179C159.836 7.03854 160.128 7.14885 160.41 7.28148L160.648 7.39321C161.878 7.97209 162.838 9.00374 163.327 10.273C163.447 10.5839 163.537 10.9054 163.596 11.2332L163.818 12.466C163.836 12.5655 163.863 12.6631 163.899 12.7575C164.114 13.3144 164.001 13.9443 163.607 14.3922L163.222 14.8294C163.194 14.861 163.171 14.897 163.155 14.936C163.036 15.2195 163.279 15.5216 163.582 15.4666L164.241 15.3467C164.596 15.2822 164.947 15.4792 165.077 15.816L165.424 16.718C165.837 17.7887 167.09 18.2607 168.106 17.7278L168.817 17.3551C168.987 17.2655 169.148 17.1575 169.295 17.0328L169.414 16.9318C170.041 16.4011 170.814 16.0734 171.631 15.992L172.251 15.9303C173.323 15.8235 174.405 16.0093 175.381 16.4682L175.662 16.6005C176.195 16.851 176.672 17.2053 177.066 17.6427C177.554 18.1851 177.901 18.8401 178.075 19.5492L178.237 20.2098C178.401 20.8781 178.468 21.5667 178.434 22.254L178.402 22.9072C178.371 23.5488 178.25 24.1827 178.042 24.7904C177.434 26.5651 176.125 28.0125 174.419 28.7938L163.958 33.5868C163.634 33.7354 163.481 34.1106 163.609 34.4435C163.743 34.7916 164.134 34.9651 164.482 34.8311L171.688 32.0566C172.708 31.6639 173.606 32.8512 172.95 33.7256C172.506 34.3176 172.769 35.1703 173.47 35.4091L175.099 35.9644C175.276 36.0249 175.445 36.1063 175.603 36.2071L177.555 37.4541C177.792 37.6054 178.007 37.7879 178.195 37.9967C178.451 38.2809 178.653 38.6096 178.79 38.9665L178.942 39.3602C179.146 39.8911 179.195 40.4693 179.081 41.0267C179.021 41.3261 178.914 41.6145 178.766 41.8816L178.361 42.6106C178.025 43.2143 177.616 43.7741 177.144 44.2775L176.964 44.469C176.38 45.0903 175.723 45.6382 175.007 46.1007L174.548 46.3975L173.077 47.5652L172.727 47.8071C171.648 48.5513 170.5 49.1878 169.297 49.7072L166.825 50.7746L156.76 55.0511L140.875 61.1671L130.675 65.0942L119.107 70.9521L103.559 77.9414L87.5393 83.7081L80.482 85.8237L70.9511 89.4933L63.0941 93.5211L50.8879 98.2208L44.1996 100.796L40.4537 102.038L38.3127 102.461L36.409 102.823C34.9396 103.102 33.5062 103.545 32.1357 104.144L26.4737 106.618L21.1134 108.682C19.461 109.318 17.7082 109.653 15.9377 109.672L14.9308 109.618C14.6882 109.605 14.4481 109.563 14.2157 109.492L14.1804 109.481C13.3244 109.219 12.6365 108.578 12.3149 107.742C12.2069 107.462 12.143 107.167 12.1254 106.867L12.0829 106.143L12.0795 104.26C12.0781 103.517 11.9407 102.781 11.674 102.089C11.4511 101.51 10.8013 101.221 10.2226 101.444L9.11574 101.87C8.99187 101.918 8.86411 101.955 8.73389 101.981L7.77474 102.17C7.12413 102.299 6.45414 102.294 5.80562 102.155C5.34739 102.057 4.90566 101.893 4.49402 101.669L4.04648 101.426C3.46914 101.112 2.95995 100.686 2.5485 100.174C2.22809 99.7747 1.97138 99.3284 1.78747 98.8508L1.58084 98.3141C1.41149 97.8742 1.31124 97.4109 1.28363 96.9404C1.24289 96.2462 1.36117 95.5519 1.62946 94.9103L1.92145 94.2121L2.88837 92.2355L4.824 89.2843L6.72692 86.7467L7.77649 85.442C7.85449 85.3451 7.95673 85.2705 8.07286 85.2258C8.43668 85.0857 8.61806 84.6772 8.47798 84.3134L7.15717 80.8829C7.08647 80.6993 7.04461 80.5058 7.03308 80.3094C7.00031 79.751 7.21435 79.2063 7.61855 78.8196L7.68298 78.7579C8.14607 78.3149 8.69251 77.9682 9.29061 77.7379L10.8927 77.1211L13.2336 76.2197L13.8308 75.9898C13.9627 75.939 14.0285 75.7909 13.9777 75.6591C13.9507 75.589 13.8942 75.5343 13.8233 75.5095ZM50.8267 82.2322C52.1636 82.3925 53.6595 82.1541 55.3144 81.5169C56.7298 80.972 57.836 80.2085 58.6331 79.2265C59.4519 78.2362 59.9516 77.1312 60.1321 75.9115C60.3042 74.6701 60.1513 73.4288 59.6734 72.1877C58.9692 70.3585 57.9752 68.9785 56.6917 68.0475C55.4299 67.1082 54.0333 66.3707 52.502 65.8352L49.5716 64.7507C48.5496 64.3691 47.6817 63.9657 46.9679 63.5404C46.2674 63.085 45.7286 62.3674 45.3513 61.3875C45.1753 60.9302 45.119 60.4268 45.1824 59.8773C45.2677 59.3194 45.5825 58.9357 46.1268 58.7261C46.6277 58.5333 47.0607 58.554 47.426 58.7884C47.7829 59.0011 48.1072 59.3888 48.3989 59.9516C48.704 60.4842 49.0183 61.1382 49.3419 61.9138L54.133 59.3565C53.8094 58.581 53.397 57.8021 52.8959 57.02C52.4081 56.2077 51.7888 55.5085 51.0381 54.9224C50.3008 54.3062 49.4044 53.9262 48.349 53.7825C47.3153 53.6304 46.0908 53.8269 44.6754 54.3718C42.389 55.2521 40.8122 56.5468 39.9451 58.2559C39.0695 59.9431 39.0635 61.9082 39.9271 64.151C40.5391 65.7406 41.3922 66.9498 42.4864 67.7787C43.594 68.5774 44.8122 69.2085 46.1408 69.6721L49.1943 70.7842C50.3805 71.2026 51.3816 71.6922 52.1977 72.2531C53.0053 72.7923 53.6188 73.6062 54.038 74.695C54.214 75.1523 54.2837 75.6255 54.247 76.1147C54.2321 76.5955 53.9198 76.9532 53.3101 77.188C52.8311 77.3724 52.3587 77.3793 51.8929 77.2086C51.4489 77.0295 50.9947 76.6293 50.5305 76.0079C50.088 75.3782 49.6379 74.5014 49.1801 73.3775L44.472 76.0528C45.2919 77.9874 46.2238 79.4663 47.2679 80.4895C48.3035 81.4909 49.4898 82.0718 50.8267 82.2322ZM57.9987 49.6546L68.1852 76.1113L74.0318 73.8602L69.932 63.2122L70.1502 61.9281L78.4739 72.1499L84.4185 69.8611L73.7068 57.3333L74.0034 43.4924L68.2874 45.6932L68.0079 58.2148L63.8453 47.4035L57.9987 49.6546ZM83.5207 39.828L88.7098 68.2088L94.2298 66.0835L92.9939 60.1461L96.8807 58.6496L99.9131 63.8953L105.302 61.8203L90.1839 37.2625L83.5207 39.828ZM94.9798 55.3684L92.1708 56.45L89.6014 45.5878L94.9798 55.3684ZM103.643 37.0685L112.157 59.1811L118.036 56.9175L109.522 34.8049L113.475 33.2832L111.802 28.9391L97.9857 34.2587L99.6583 38.6028L103.643 37.0685ZM117.397 26.7846L127.584 53.2414L139.538 48.6386L138.017 44.6864L131.909 47.0381L128.866 39.1338L133.471 37.3606L131.912 33.3104L127.306 35.0836L124.778 28.5184L130.821 26.1919L129.287 22.207L117.397 26.7846Z" fill="#ECD92C"/>
</svg>
