<svg width="38" height="38" viewBox="0 0 38 38" fill="none" xmlns="http://www.w3.org/2000/svg">
<path d="M22.2476 13.3832L19.8117 16.7272C19.4389 16.3742 18.9854 16.1179 18.4908 15.9805C17.9961 15.8432 17.4754 15.829 16.974 15.9392C16.4726 16.0494 16.0058 16.2807 15.6143 16.6128C15.2229 16.9449 14.9187 17.3678 14.7283 17.8446C14.5378 18.3213 14.467 18.8374 14.522 19.3478C14.5769 19.8583 14.756 20.3475 15.0435 20.7727C15.331 21.198 15.7183 21.5465 16.1715 21.7877C16.6246 22.0289 17.13 22.1555 17.6433 22.1564C18.5489 22.2382 19.451 21.9658 20.16 21.3964C21.0063 20.733 24.8451 15.4669 26.5377 11.9598M26.5377 11.959H34.4369H26.5377Z" stroke="#9E9E9E" stroke-linecap="round" stroke-linejoin="round"/>
<path d="M34.4375 11.9576C27.5777 22.3681 22.663 26.3921 17.9265 26.309C13.19 26.2259 10.355 23.0449 10.355 19.0043C10.3494 17.6302 10.7324 16.2826 11.46 15.117C12.1876 13.9514 13.23 13.0153 14.4668 12.4168C15.7037 11.8183 17.0846 11.5818 18.4501 11.7347C19.8157 11.8875 21.1101 12.4234 22.1841 13.2805M3.5625 11.9576L7.36171 18.287M7.3625 18.2609C7.5112 15.8493 8.56465 13.5826 10.3123 11.9141L3.5625 11.9584L7.3625 18.2609Z" stroke="#9E9E9E" stroke-linecap="round" stroke-linejoin="round"/>
</svg>
