<svg width="30" height="30" viewBox="0 0 30 30" fill="none" xmlns="http://www.w3.org/2000/svg">
<g clip-path="url(#clip0_1_280)">
<path d="M1.39593 5.84964C0.62523 5.84964 0 6.47454 0 7.24557V23.2937C0 24.0646 0.62532 24.6896 1.39593 24.6896H28.6041C29.3748 24.6896 30 24.0647 30 23.2937V7.24554C30 6.47463 29.3747 5.84961 28.6041 5.84961H1.3959L1.39593 5.84964ZM9.83718 8.11746C11.5496 8.11746 13.1223 8.71323 14.3569 9.70839C13.3182 10.6378 12.5435 11.8588 12.1613 13.2428H12.7603C13.1131 12.101 13.754 11.0845 14.5988 10.2784C15.4435 11.0845 16.0844 12.101 16.4372 13.2428H17.0456C16.6581 11.8661 15.8823 10.6523 14.8444 9.72903C16.0813 8.72124 17.6602 8.11743 19.38 8.11743C23.3487 8.11743 26.5659 11.335 26.5659 15.3043C26.5659 19.2736 23.3487 22.4912 19.38 22.4912C17.6316 22.4912 16.0284 21.8671 14.7825 20.829C15.897 19.8594 16.7186 18.5596 17.0944 17.0809H16.5084C16.1748 18.322 15.5032 19.4258 14.5987 20.289C13.6942 19.4258 13.0236 18.322 12.69 17.0809H12.1321C12.5101 18.5382 13.321 19.8198 14.4187 20.7803C13.1751 21.8056 11.5782 22.4218 9.83715 22.4218C5.86845 22.4218 2.65125 19.2197 2.65125 15.2696C2.65125 11.3195 5.86845 8.11746 9.83718 8.11746ZM18.8409 13.1696C17.9775 13.1696 17.1375 13.9245 17.1375 15.3418C17.1375 16.2817 17.5912 16.9018 18.4837 16.9018C18.7361 16.9019 19.1381 16.7987 19.1381 16.7987L19.2712 15.9775C19.2712 15.9775 18.9044 16.1631 18.6525 16.1631C18.122 16.1631 17.9091 15.755 17.9091 15.3165C17.9091 14.4269 18.3655 13.9374 18.8737 13.9374C19.2548 13.9374 19.5609 14.1531 19.5609 14.1531L19.6828 13.3543C19.6828 13.3543 19.2297 13.1696 18.8409 13.1696H18.8409ZM26.1 13.239L25.3491 13.2409L25.1878 14.229C25.1878 14.229 24.9055 13.8456 24.4641 13.8456C23.7777 13.8456 23.2059 14.661 23.2059 15.5987C23.2059 16.204 23.5102 16.7977 24.1341 16.7977C24.5828 16.7977 24.8316 16.4893 24.8316 16.4893L24.7987 16.7527H25.5281L26.1 13.239ZM4.59186 13.2493L3.99375 16.7715H4.71468L5.17032 14.1156L5.23782 16.7715H5.75343L6.71532 14.1156L6.28875 16.7715H7.05468L7.64532 13.2493H6.46032L5.7225 15.4102L5.68407 13.2493H4.59189L4.59186 13.2493ZM12.1237 13.4781C12.1075 13.4944 11.6878 15.9143 11.6878 16.209C11.6878 16.6454 11.9324 16.8403 12.2766 16.8371C12.5232 16.835 12.7141 16.7731 12.8025 16.7471C12.8117 16.7446 12.8297 16.7396 12.8297 16.7396L12.9225 16.1096C12.872 16.1096 12.7977 16.1312 12.7322 16.1312C12.4752 16.1312 12.4468 15.9945 12.4631 15.8931L12.6703 14.6078H13.0612L13.1559 13.9112H12.7875L12.8625 13.4781H12.1237ZM20.8378 13.8325C20.3346 13.8325 19.9491 13.9984 19.9491 13.9984L19.8422 14.6453C19.8422 14.6453 20.1606 14.5131 20.6419 14.5131C20.9151 14.5131 21.1153 14.5443 21.1153 14.7718C21.1153 14.91 21.0909 14.9612 21.0909 14.9612C21.0909 14.9612 20.8749 14.9425 20.775 14.9425C20.1404 14.9425 19.4737 15.2206 19.4737 16.0571C19.4737 16.7163 19.9114 16.8671 20.1825 16.8671C20.7002 16.8671 20.9235 16.5232 20.9353 16.5221L20.9109 16.809H21.5569L21.8456 14.739C21.8457 13.8607 21.0976 13.8324 20.8378 13.8324V13.8325ZM8.72061 13.8362C8.21559 13.8362 7.82811 14.0021 7.82811 14.0021L7.72125 14.649C7.72125 14.649 8.04075 14.5168 8.52375 14.5168C8.79801 14.5168 8.99907 14.5482 8.99907 14.7756C8.99907 14.9137 8.97468 14.965 8.97468 14.965C8.97468 14.965 8.75799 14.9462 8.65782 14.9462C8.02083 14.9462 7.35189 15.2239 7.35189 16.06C7.35189 16.7188 7.79043 16.87 8.0625 16.87C8.58213 16.87 8.8062 16.526 8.81814 16.525L8.79375 16.8118H9.4425L9.73218 14.7428C9.73218 13.8649 8.98137 13.8362 8.72061 13.8362V13.8362ZM11.0119 13.8362C10.4696 13.8362 9.91875 14.0551 9.91875 14.8028C9.91875 15.6499 10.8366 15.5643 10.8366 15.9212C10.8366 16.1594 10.5804 16.179 10.3828 16.179C10.0408 16.179 9.73329 16.0609 9.73218 16.0665L9.63375 16.7134C9.65145 16.7189 9.84189 16.8043 10.4569 16.8043C10.622 16.8043 11.5659 16.8463 11.5659 15.8631C11.5659 14.9439 10.6922 15.1261 10.6922 14.7568C10.6922 14.573 10.8341 14.515 11.0944 14.515C11.1977 14.515 11.596 14.5478 11.596 14.5478L11.6878 13.8943C11.6878 13.8944 11.4309 13.8362 11.0119 13.8362H11.0119ZM14.4019 13.8362C13.6483 13.8364 13.0903 14.6467 13.0903 15.5621C13.0903 16.6187 13.7894 16.87 14.385 16.87C14.9348 16.87 15.1772 16.7471 15.1772 16.7471L15.3084 16.0262C15.3084 16.0262 14.8902 16.21 14.5125 16.21C13.7077 16.21 13.8488 15.6109 13.8488 15.6109H15.3722C15.3722 15.6109 15.4706 15.1267 15.4706 14.9293C15.4706 14.4367 15.2248 13.8362 14.4019 13.8362H14.4019ZM17.131 13.8671C16.7914 13.8671 16.5394 14.3237 16.5394 14.3237L16.6069 13.9046H15.9019L15.4285 16.7978H16.2075C16.4282 15.5623 16.4684 14.5591 16.995 14.7428C17.0872 14.2646 17.1766 14.0798 17.2772 13.8775C17.2772 13.8775 17.2299 13.8671 17.1309 13.8671H17.131ZM23.4431 13.8671C23.1036 13.8671 22.8516 14.3237 22.8516 14.3237L22.9191 13.9046H22.2141L21.7406 16.7978H22.5187C22.7395 15.5623 22.7808 14.5591 23.3072 14.7428C23.3995 14.2646 23.4889 14.0798 23.5894 13.8775C23.5894 13.8775 23.5421 13.8671 23.4431 13.8671H23.4431ZM14.3981 14.4887C14.8261 14.4887 14.7478 14.9718 14.7478 15.0109H13.905C13.905 14.961 13.9847 14.4887 14.3981 14.4887H14.3981ZM24.5822 14.545C24.8546 14.5449 24.9947 14.7289 24.9947 15.1618C24.9947 15.5546 24.7966 16.0796 24.3862 16.0796C24.1139 16.0796 23.9859 15.8547 23.9859 15.5021C23.9859 14.9256 24.2497 14.545 24.5822 14.545H24.5822ZM20.8387 15.5293C20.9499 15.5295 20.9728 15.5403 20.9916 15.5453C20.9889 15.5448 20.9884 15.5453 20.9991 15.5471C21.0131 15.676 20.9212 16.2803 20.4769 16.2803C20.2477 16.2803 20.1891 16.0981 20.1891 15.9906C20.1891 15.7809 20.2982 15.5293 20.8387 15.5293ZM8.72157 15.5321C8.84778 15.5323 8.86155 15.5464 8.88282 15.55C8.89692 15.6787 8.80464 16.2821 8.35875 16.2821C8.12874 16.2821 8.06907 16.1008 8.06907 15.9934C8.06907 15.7839 8.17887 15.5321 8.72157 15.5321Z" fill="#9E9E9E"/>
</g>
<defs>
<clipPath id="clip0_1_280">
<rect width="30" height="30" fill="white"/>
</clipPath>
</defs>
</svg>
