<svg width="30" height="30" viewBox="0 0 30 30" fill="none" xmlns="http://www.w3.org/2000/svg">
<path d="M1.2 5.58008C0.53739 5.58008 0 6.11732 0 6.78008V23.2201C0 23.8828 0.53766 24.4201 1.2 24.4201H28.8C29.4626 24.4201 30 23.8828 30 23.2201V6.78008C30 6.11735 29.4623 5.58008 28.8 5.58008H1.2ZM17.9175 11.1948C18.6476 11.1948 19.2328 11.356 19.6059 11.506L19.3509 13.1101L19.1822 13.0248C18.8346 12.8748 18.3881 12.7305 17.7722 12.7407C17.0349 12.7407 16.6941 13.0696 16.6941 13.3773C16.6898 13.724 17.0923 13.9527 17.7506 14.2951C18.8371 14.8234 19.3393 15.4639 19.3322 16.306C19.3176 17.8425 18.0325 18.8354 16.0528 18.8354C15.2082 18.8261 14.3945 18.6473 13.9547 18.4407L14.2191 16.7832L14.4619 16.9013C15.0804 17.1777 15.4809 17.2895 16.2347 17.2895C16.776 17.2895 17.3569 17.0628 17.3616 16.5666C17.3651 16.2426 17.1187 16.0116 16.3856 15.6488C15.6713 15.2947 14.7242 14.7015 14.7347 13.6379C14.7459 12.1991 16.0566 11.1948 17.9175 11.1948ZM2.65311 11.4301H5.69343C6.10284 11.4456 6.43338 11.5774 6.5475 12.0216L7.20282 15.4041C7.20291 15.4044 7.2027 15.4057 7.20282 15.406L7.39968 16.4195L9.24561 11.4301H11.2425L8.27436 18.7332L6.27936 18.7351L4.69125 12.8419C5.63619 13.3425 6.44067 13.9218 6.90657 14.7188C6.78645 14.4666 6.62817 14.1819 6.42564 13.9013C6.18978 13.5746 5.68041 13.1527 5.4675 12.9732C4.7256 12.3478 3.71805 11.8427 2.62968 11.5754L2.65311 11.4301ZM12.0366 11.4385H13.9894L12.7678 18.7304H10.815L12.0366 11.4385ZM23.0662 11.4385H24.5456L26.0944 18.7304H24.3188C24.3188 18.7304 24.1426 17.8927 24.0853 17.6373C23.8062 17.6373 21.8543 17.6345 21.6347 17.6345C21.5604 17.8319 21.2316 18.7304 21.2316 18.7304H19.2225L22.0641 12.0441C22.2652 11.569 22.6082 11.4385 23.0662 11.4385ZM23.2116 13.3998C23.1155 13.671 22.9482 14.109 22.9594 14.0898C22.9594 14.0898 22.3582 15.693 22.201 16.1091L23.7806 16.1082C23.6339 15.4129 23.487 14.7176 23.34 14.0223L23.2116 13.3998V13.3998Z" fill="#9E9E9E"/>
</svg>
