<svg width="60" height="48" viewBox="0 0 60 48" fill="none" xmlns="http://www.w3.org/2000/svg">
<path d="M22.3125 28.2383H27.8156L29.9062 25.407H24.4031L22.3125 28.2383ZM0 26.5227V27.1227H7.66875L8.10938 26.5227H0ZM16.2094 25.407C15.3937 25.407 15.6469 25.0695 15.7781 24.8914C16.0406 24.5352 16.4906 23.9164 16.7531 23.5695C17.0156 23.2227 17.0156 23.0164 16.4906 23.0164H11.7094L7.85625 28.2477H17.2406C20.3438 28.2477 22.0688 26.1383 22.6031 25.407H16.2094ZM45.975 24.7602L49.6594 19.7539H43.8281L40.1438 24.7602H45.975ZM8.93438 25.407H0V26.007H8.49375L8.93438 25.407ZM19.3406 22.9133C19.0781 23.2695 18.6375 23.8883 18.375 24.2445C18.2437 24.432 17.9906 24.7602 18.8063 24.7602H23.0812C23.0812 24.7602 23.7656 23.8227 24.3469 23.0352C25.1344 21.9664 24.4125 19.7539 21.6094 19.7539H10.5562L8.64375 22.3602H19.0875C19.6125 22.3602 19.6031 22.5664 19.3406 22.9133ZM0 28.2383H6.85312L7.29375 27.6383H0V28.2383ZM30.2812 28.2383H35.7844L37.875 25.407H32.3719C32.3625 25.407 30.2812 28.2383 30.2812 28.2383ZM51.0938 28.2477H60V27.6477H51.5344L51.0938 28.2477ZM53.1844 25.407L52.7437 26.007H60V25.407H53.1844ZM51.9187 27.1227H60V26.5227H52.3594L51.9187 27.1227ZM36.525 19.7539L34.4156 22.6227H31.9594L34.0687 19.7539H28.5656L24.8812 24.7602H38.3438L42.0281 19.7539H36.525ZM39.6656 25.407C39.6656 25.407 39.2625 25.9602 39.0656 26.2227C38.3719 27.1602 38.9813 28.2477 41.2406 28.2477H50.0813L52.1719 25.407H39.6656Z" fill="#9E9E9E"/>
</svg>
